<svg width="224" height="53" viewBox="0 0 224 53" fill="none" xmlns="http://www.w3.org/2000/svg">
<g clip-path="url(#clip0_1944_20700)">
<path d="M45.8261 38.5319V20.3076C45.8261 20.2642 45.7827 20.2208 45.7393 20.2208H37.8565C37.7553 20.2208 37.6685 20.134 37.6685 20.0328V14.2907C37.6685 14.1894 37.7553 14.1026 37.8565 14.1026H60.7526C60.8539 14.1026 60.9407 14.1894 60.9407 14.2907V20.0328C60.9407 20.134 60.8539 20.2208 60.7526 20.2208H52.8699C52.812 20.2208 52.7831 20.2642 52.7831 20.3076V38.5319C52.7831 38.6331 52.6963 38.7199 52.5951 38.7199H45.9996C45.8984 38.7199 45.8261 38.6331 45.8261 38.5319Z" fill="#242424"/>
<path d="M64.2384 30.8083C64.1805 30.8083 64.1371 30.8661 64.1516 30.924C64.6289 33.325 66.3501 34.0771 67.999 34.0771C69.6478 34.0771 70.4723 33.513 70.9496 32.6886C70.9785 32.6307 71.0508 32.5873 71.1087 32.5873H77.3715C77.4872 32.5873 77.5884 32.703 77.545 32.8187C76.4747 36.4781 72.6852 39.3419 67.9267 39.3419C61.6928 39.3419 57.7876 35.104 57.7876 29.3908C57.7876 23.6777 61.7651 19.5844 68.0713 19.5844C74.3775 19.5844 77.8343 24.0103 77.8343 29.7235C77.8343 29.9838 77.8343 30.1719 77.762 30.7938L64.2384 30.8083ZM64.3975 27.2357H71.3979C71.4558 27.2357 71.4992 27.1779 71.4847 27.12C71.0508 25.3699 69.6623 24.5166 67.9411 24.5166C66.2199 24.5166 64.7736 25.4422 64.2962 27.1056C64.2818 27.1779 64.3252 27.2357 64.3975 27.2357Z" fill="#242424"/>
<path d="M100.673 15.0283H106.603C106.704 15.0283 106.791 15.1151 106.791 15.2164V20.1196C106.791 20.163 106.834 20.2063 106.878 20.2063H110.421C110.522 20.2063 110.609 20.2931 110.609 20.3944V25.7604C110.609 25.8617 110.522 25.9484 110.421 25.9484H107.037C106.993 25.9484 106.95 25.9918 106.95 26.0352V31.7918C106.95 32.7175 107.21 32.9778 108.28 32.9778H110.609C110.71 32.9778 110.797 33.0646 110.797 33.1659V38.5319C110.797 38.6332 110.71 38.7199 110.609 38.7199H104.245C101.916 38.7199 100.513 37.3459 100.513 34.9015V26.0497C100.513 25.9918 100.47 25.9629 100.427 25.9629H98.4885C98.3873 25.9629 98.3005 25.8761 98.3005 25.7749V20.4088C98.3005 20.3076 98.3873 20.2208 98.4885 20.2208H100.427C100.47 20.2208 100.513 20.1774 100.513 20.134V15.2164C100.499 15.1151 100.571 15.0283 100.673 15.0283Z" fill="#242424"/>
<path d="M140.752 29.4632C140.752 23.6343 145.206 19.5844 150.963 19.5844C156.72 19.5844 161.218 23.6343 161.218 29.4632C161.218 35.292 156.72 39.3419 150.963 39.3419C145.206 39.3419 140.752 35.2631 140.752 29.4632ZM154.579 29.4632C154.579 27.0911 153.017 25.5579 150.977 25.5579C148.938 25.5579 147.405 27.0766 147.405 29.4632C147.405 31.8497 148.924 33.3684 150.977 33.3684C153.031 33.3684 154.579 31.8063 154.579 29.4632Z" fill="#242424"/>
<path d="M89.9694 26.8452L88.2627 26.6282C86.4113 26.3679 85.8183 26.1509 85.8183 25.4133C85.8183 24.748 86.5559 24.2273 87.93 24.2273C89.3041 24.2273 90.2587 24.748 90.6347 25.8327C90.6636 25.9051 90.736 25.9629 90.8083 25.9629H96.4491C96.5649 25.9629 96.6516 25.8617 96.6372 25.746C95.9429 22.4193 92.9489 19.5989 87.9445 19.5989C82.6941 19.5989 79.4253 22.3325 79.4253 25.8906C79.4253 29.4487 82.0577 31.1843 85.934 31.705L87.5973 31.922C89.2607 32.1389 90.4901 32.3703 90.4901 33.325C90.4901 34.106 89.738 34.5399 88.2482 34.5399C86.7584 34.5399 85.7604 34.0048 85.2831 32.7175C85.2542 32.6452 85.1819 32.5873 85.1096 32.5873H79.3675C79.2518 32.5873 79.165 32.6886 79.1794 32.7898C79.6857 36.5938 82.8677 39.3419 88.2048 39.3419C93.5419 39.3419 96.7673 36.7529 96.7673 32.8043C96.7673 28.8557 93.701 27.3225 89.9694 26.8452Z" fill="#242424"/>
<path d="M175.58 19.8882C173.237 19.9605 171.154 21.0163 169.853 22.7954C169.795 22.8677 169.679 22.8388 169.679 22.7375V20.4088C169.679 20.3076 169.592 20.2208 169.491 20.2208H163.416C163.315 20.2208 163.228 20.3076 163.228 20.4088V38.5464C163.228 38.6476 163.315 38.7344 163.416 38.7344H169.636C169.737 38.7344 169.824 38.6476 169.824 38.5464V31.0686C169.824 27.4382 172.528 26.5849 174.785 26.5849C175.06 26.5849 175.305 26.5993 175.551 26.6283C175.667 26.6427 175.754 26.5559 175.754 26.4402V20.0762C175.768 19.9605 175.682 19.8737 175.58 19.8882Z" fill="#242424"/>
<path d="M187.484 38.5319V14.2907C187.484 14.1894 187.571 14.1026 187.672 14.1026H193.891C193.993 14.1026 194.079 14.1894 194.079 14.2907V38.5319C194.079 38.6331 193.993 38.7199 193.891 38.7199H187.672C187.571 38.7199 187.484 38.6331 187.484 38.5319Z" fill="#242424"/>
<path d="M178.14 38.5319V20.3944C178.14 20.2931 178.227 20.2063 178.328 20.2063H184.548C184.649 20.2063 184.736 20.2931 184.736 20.3944V38.5319C184.736 38.6332 184.649 38.7199 184.548 38.7199H178.328C178.227 38.7199 178.14 38.6332 178.14 38.5319Z" fill="#242424"/>
<path d="M181.438 11.9475C183.608 11.9475 185.358 13.5241 185.358 15.4767C185.358 17.4293 183.593 19.0059 181.438 19.0059C179.283 19.0059 177.518 17.4293 177.518 15.4767C177.518 13.5241 179.269 11.9475 181.438 11.9475Z" fill="#242424"/>
<path d="M127.937 25.5001V30.3599C127.937 30.4611 128.024 30.5479 128.125 30.5479H131.09C131.119 30.5479 131.148 30.5913 131.133 30.6202C130.265 32.0955 128.356 33.0067 126.1 33.0067C124.176 33.0067 122.556 32.3703 121.385 31.1554C120.228 29.9404 119.606 28.2482 119.606 26.2522C119.606 24.2562 120.213 22.5639 121.385 21.349C122.513 20.1629 124.104 19.5121 125.883 19.5121C128.53 19.5121 130.641 20.9584 131.596 23.3884C131.625 23.4607 131.697 23.5041 131.77 23.5041H138.524C138.64 23.5041 138.727 23.3884 138.698 23.2726C138.047 20.351 136.557 17.8632 134.344 16.0552C132.03 14.1605 129.108 13.1625 125.883 13.1625C122.238 13.1625 118.897 14.4642 116.453 16.8363C113.979 19.2373 112.62 22.5784 112.62 26.2522C112.62 29.926 113.979 33.3539 116.453 35.7549C118.839 38.0691 122.064 39.3419 125.565 39.3419C128.848 39.3419 131.582 38.2571 133.462 36.1888C133.491 36.1598 133.549 36.1743 133.549 36.2177V38.5174C133.549 38.6187 133.635 38.7055 133.737 38.7055H138.568C138.669 38.7055 138.756 38.6187 138.756 38.5174V25.4856C138.756 25.3844 138.669 25.2976 138.568 25.2976H128.125C128.009 25.3265 127.937 25.3988 127.937 25.5001Z" fill="#242424"/>
<path d="M30.6679 31.4302L28.455 7.34808C28.3104 5.7426 27.269 4.36855 25.7647 3.79C22.2934 2.45933 18.8221 1.75061 15.3508 1.75061C11.8795 1.75061 8.40824 2.44487 4.92248 3.79C3.41825 4.36855 2.37686 5.75707 2.24669 7.36254L0.0337327 31.4302C-0.0530498 32.3704 0.0771239 33.3394 0.438718 34.2217C0.583355 34.5833 0.771384 34.9304 0.98834 35.1474L12.892 48.4974C13.5429 49.1628 14.4252 49.5533 15.3508 49.5533C16.2765 49.5533 17.1588 49.1628 17.8097 48.4974L29.7133 35.1474C29.9303 34.9304 30.1183 34.5833 30.263 34.2217C30.639 33.3394 30.7547 32.3848 30.6679 31.4302ZM24.5498 36.5648L18.0556 43.8401C17.9254 43.9847 17.7374 44.0715 17.5349 44.0715H13.1668C12.9643 44.0715 12.7763 43.9847 12.6461 43.8401L6.16636 36.5648C6.1085 36.507 6.16636 36.4057 6.25314 36.4202C9.50748 37.3603 12.6317 37.6641 15.3508 37.6496C18.0845 37.6641 21.2087 37.3459 24.4485 36.4202C24.5353 36.4057 24.6076 36.507 24.5498 36.5648ZM27.7463 32.6018C23.6096 34.1639 19.4875 34.9449 15.3653 34.9449C11.2287 34.9449 7.12097 34.1639 2.98434 32.6018C2.95541 32.5873 2.92648 32.5584 2.92648 32.515C2.95541 27.9589 6.51349 24.936 7.54042 24.1839C7.65613 24.0971 7.64166 23.9235 7.51149 23.8657C5.54442 22.94 4.19929 21.1031 4.19929 19.0059C4.19929 15.9685 7.00526 14.0882 10.4621 14.0882C11.1853 14.0882 11.8795 14.1316 12.5304 14.3196C12.6027 14.3485 12.675 14.2617 12.6317 14.1894C12.0531 13.2348 10.2741 12.3236 9.68105 12.0488C9.63766 12.0199 9.65212 11.9475 9.70998 11.9475C13.2247 11.8029 14.7578 13.1914 15.2351 13.8423C15.2641 13.8857 15.3219 13.9146 15.3798 13.9146C15.4376 13.9146 15.4955 13.8857 15.5244 13.8423C16.0017 13.1914 17.5349 11.8029 21.0496 11.9475C21.1074 11.9475 21.1219 12.0199 21.064 12.0488C20.471 12.3236 18.6775 13.2348 18.1134 14.1894C18.07 14.2617 18.1423 14.3341 18.2147 14.3196C18.8655 14.1316 19.5598 14.0882 20.283 14.0882C23.7398 14.0882 26.5458 15.954 26.5458 19.0059C26.5458 21.1031 25.2006 22.94 23.2336 23.8657C23.1034 23.9235 23.0889 24.0971 23.2046 24.1839C24.2316 24.936 27.7897 27.9589 27.8186 32.515C27.8041 32.5584 27.7752 32.5873 27.7463 32.6018ZM22.6984 20.727C22.5682 20.8138 22.4091 20.7849 22.3224 20.6547C21.7583 19.9026 20.8471 19.4976 19.8925 19.5555C19.3139 19.5989 18.7932 19.8014 18.3448 20.1485C18.2291 20.2353 18.0556 20.2208 17.9543 20.1196L16.9129 19.0059C16.7972 18.8901 16.8117 18.6732 16.9419 18.5719C17.7374 17.9211 18.7209 17.5306 19.7478 17.4582C21.4545 17.3425 23.0745 18.1091 24.0725 19.4832C24.1737 19.6133 24.1448 19.8158 24.0002 19.9026C24.0002 19.9171 22.6984 20.7415 22.6984 20.727ZM16.1608 27.0911C16.2621 26.3824 16.667 25.7604 17.4481 25.6592C17.9832 25.6013 18.5184 25.8038 18.7932 26.1943C19.0391 26.527 19.0246 26.9465 18.8511 27.308C18.7209 27.5539 18.692 27.8866 18.6775 28.2048C18.6341 28.7255 18.5763 29.3764 17.9398 29.4631C17.4915 29.5065 17.072 29.333 16.7538 29.0148C16.2765 28.5809 16.074 27.7853 16.1608 27.0911ZM6.70152 19.9171C6.57134 19.8158 6.52795 19.6278 6.6292 19.4976C7.61273 18.1236 9.24714 17.357 10.9539 17.4727C11.9808 17.545 12.9788 17.9355 13.7743 18.5864C13.9045 18.6877 13.9189 18.9046 13.8032 19.0203L12.7618 20.134C12.6606 20.2497 12.487 20.2642 12.3713 20.163C11.9229 19.8158 11.4022 19.6133 10.8237 19.5699C9.86908 19.5121 8.97233 19.9171 8.39378 20.6692C8.30699 20.7849 8.13343 20.8138 8.00326 20.7415C8.00326 20.727 6.70152 19.9171 6.70152 19.9171ZM13.9623 29.0292C13.6441 29.3474 13.2247 29.5065 12.7763 29.4776C12.1399 29.3908 12.082 28.74 12.0386 28.2193C12.0097 27.9011 11.9808 27.5684 11.8651 27.3225C11.6915 26.9609 11.677 26.5415 11.9229 26.2088C12.1977 25.8183 12.7329 25.6013 13.2681 25.6736C14.0491 25.7749 14.4685 26.3968 14.5553 27.1056C14.6277 27.7853 14.4252 28.5809 13.9623 29.0292Z" fill="#D410AA"/>
<path d="M196.813 38.5319V14.2907C196.813 14.1894 196.9 14.1026 197.001 14.1026H203.221C203.322 14.1026 203.409 14.1894 203.409 14.2907V38.5319C203.409 38.6331 203.322 38.7199 203.221 38.7199H197.001C196.9 38.7199 196.813 38.6331 196.813 38.5319Z" fill="#242424"/>
<path d="M218.104 38.5319V37.3025C218.104 37.2157 218.002 37.1723 217.945 37.2446C216.643 38.5608 214.69 39.3563 212.391 39.3563C208.355 39.3563 205.593 37.2302 205.593 33.6142C205.593 29.5499 209.368 27.7564 215.63 27.525C216.73 27.4961 217.294 27.4816 217.887 27.4816C217.93 27.4816 217.974 27.4382 217.974 27.3948V26.8886C217.974 25.5001 217.004 24.6467 215.399 24.6467C213.794 24.6467 212.926 25.3699 212.636 26.5848C212.622 26.6716 212.535 26.7295 212.463 26.7295H206.359C206.243 26.7295 206.157 26.6282 206.171 26.527C206.75 22.535 210.149 19.5699 215.399 19.5699C220.215 19.5699 223.976 21.8407 223.976 26.8163V38.5464C223.976 38.6476 223.889 38.7344 223.788 38.7344H218.263C218.191 38.7199 218.104 38.6331 218.104 38.5319ZM217.988 31.4736V30.9384C217.988 30.8806 217.945 30.8517 217.901 30.8517C217.612 30.8661 217.12 30.895 216.614 30.924C213.446 31.1409 212.289 31.8496 212.289 33.0501C212.289 34.0192 213.07 34.6122 214.415 34.6122C216.715 34.6122 217.988 33.0357 217.988 31.4736Z" fill="#242424"/>
</g>
<defs>
<clipPath id="clip0_1944_20700">
<rect width="224" height="51.6816" fill="white" transform="translate(0 0.705688)"/>
</clipPath>
</defs>
</svg>
